<?xml version="1.0" encoding="iso-8859-1"?>
<!-- Uploaded to: SVG Repo, www.svgrepo.com, Generator: SVG Repo Mixer Tools -->
<!DOCTYPE svg PUBLIC "-//W3C//DTD SVG 1.1//EN" "http://www.w3.org/Graphics/SVG/1.1/DTD/svg11.dtd">
<svg height="800px" width="800px" version="1.1" id="Capa_1" xmlns="http://www.w3.org/2000/svg" xmlns:xlink="http://www.w3.org/1999/xlink" 
	 viewBox="0 0 297.5 297.5" xml:space="preserve">
<g>
	<g id="XMLID_26_">
		<g>
			<path style="fill:#E95755;" d="M253.02,68.94v208.54H44.48V68.94H253.02z M219.81,125.76c1.601-3.23,0.971-7.13-1.58-9.68
				C199.67,97.52,175,87.3,148.75,87.3c-26.24,0-50.91,10.22-69.47,28.78c-2.551,2.55-3.19,6.45-1.58,9.68l63.529,127.71
				c1.421,2.86,4.33,4.66,7.52,4.66c3.189,0,6.1-1.8,7.52-4.66L219.81,125.76z"/>
			<path style="fill:#B85627;" d="M162.59,184c2.45,0,4.45,2.07,4.45,4.6c0,2.54-2,4.61-4.45,4.61c-2.45,0-4.45-2.07-4.45-4.61
				C158.14,186.07,160.14,184,162.59,184z"/>
			<path style="fill:#B85627;" d="M128.93,155.41c1.221,2.29,1.471,4.92,0.71,7.41c-0.76,2.48-2.439,4.52-4.729,5.739
				c-2.08,1.11-4.44,1.41-6.71,0.891l-6.71-13.48c0.88-1.96,2.359-3.559,4.29-4.58c2.29-1.22,4.92-1.479,7.409-0.72
				C125.67,151.43,127.71,153.11,128.93,155.41z"/>
			<path style="fill:#AE9676;" d="M201.97,123.89l-1.609,3.24c-14.57-11.8-32.591-18.229-51.61-18.229
				c-19.01,0-37.03,6.43-51.61,18.229l-1.609-3.24c14.79-12.8,33.47-19.779,53.22-19.779
				C168.51,104.11,187.189,111.09,201.97,123.89z"/>
			<path style="fill:#F0C082;" d="M192.65,142.63l-15.25,30.65c-3.83-3.761-9.051-6.08-14.811-6.08c-11.72,0-21.25,9.6-21.25,21.399
				c0,10.66,7.78,19.53,17.92,21.141l-10.51,21.13l-22.41-45.061c2.22-0.52,4.39-1.319,6.46-2.42
				c6.25-3.319,10.84-8.89,12.91-15.659c2.07-6.78,1.38-13.95-1.95-20.211c-3.32-6.26-8.88-10.85-15.66-12.92
				c-3.449-1.05-7.01-1.39-10.5-1.02c9.45-5.14,20.09-7.87,31.15-7.87C165.14,125.71,180.6,131.69,192.65,142.63z M174.939,149.99
				c0-2.221-0.899-4.38-2.46-5.94c-1.56-1.569-3.73-2.47-5.939-2.47c-2.2,0-4.37,0.9-5.94,2.47c-1.56,1.561-2.46,3.72-2.46,5.94
				c0,2.2,0.9,4.359,2.46,5.93c1.561,1.57,3.73,2.47,5.94,2.47c2.21,0,4.38-0.899,5.939-2.47
				C174.04,154.36,174.939,152.2,174.939,149.99z"/>
			<path d="M272.79,59.06v228.31c0,5.45-4.42,9.88-9.88,9.88H34.6c-5.46,0-9.89-4.43-9.89-9.88V59.06c0-5.46,4.43-9.89,9.89-9.89
				h56.19C95.51,21.44,119.7,0.25,148.75,0.25c29.06,0,53.25,21.19,57.96,48.92h56.2C268.37,49.17,272.79,53.6,272.79,59.06z
				 M253.02,277.48V68.94H44.48v208.54H253.02z M110.98,49.17h75.54c-4.39-16.75-19.649-29.15-37.77-29.15
				C130.64,20.02,115.37,32.42,110.98,49.17z"/>
			<path d="M218.23,116.08c2.551,2.55,3.181,6.45,1.58,9.68l-63.54,127.71c-1.42,2.86-4.33,4.66-7.52,4.66
				c-3.19,0-6.1-1.8-7.52-4.66L77.7,125.76c-1.61-3.23-0.971-7.13,1.58-9.68C97.84,97.52,122.51,87.3,148.75,87.3
				C175,87.3,199.67,97.52,218.23,116.08z M200.36,127.13l1.609-3.24c-14.78-12.8-33.46-19.779-53.22-19.779
				c-19.75,0-38.43,6.979-53.22,19.779l1.609,3.24c14.58-11.8,32.601-18.229,51.61-18.229C167.77,108.9,185.79,115.33,200.36,127.13
				z M177.4,173.28l15.25-30.65c-12.051-10.939-27.511-16.92-43.9-16.92c-11.061,0-21.7,2.73-31.15,7.87
				c3.49-0.37,7.051-0.03,10.5,1.02c6.78,2.07,12.34,6.66,15.66,12.92c3.33,6.261,4.02,13.431,1.95,20.211
				c-2.07,6.77-6.66,12.34-12.91,15.659c-2.07,1.101-4.24,1.9-6.46,2.42l22.41,45.061l10.51-21.13
				c-10.14-1.61-17.92-10.48-17.92-21.141c0-11.8,9.53-21.399,21.25-21.399C168.35,167.2,173.57,169.52,177.4,173.28z M167.04,188.6
				c0-2.529-2-4.6-4.45-4.6c-2.45,0-4.45,2.07-4.45,4.6c0,2.54,2,4.61,4.45,4.61C165.04,193.21,167.04,191.14,167.04,188.6z
				 M129.64,162.82c0.761-2.49,0.511-5.12-0.71-7.41c-1.22-2.3-3.26-3.98-5.74-4.74c-2.489-0.76-5.119-0.5-7.409,0.72
				c-1.931,1.021-3.41,2.62-4.29,4.58l6.71,13.48c2.27,0.52,4.63,0.22,6.71-0.891C127.2,167.34,128.88,165.3,129.64,162.82z"/>
			<path d="M172.48,144.05c1.561,1.561,2.46,3.72,2.46,5.94c0,2.21-0.899,4.37-2.46,5.93c-1.56,1.57-3.73,2.47-5.939,2.47
				c-2.21,0-4.38-0.899-5.94-2.47c-1.56-1.57-2.46-3.73-2.46-5.93c0-2.221,0.9-4.38,2.46-5.94c1.57-1.569,3.74-2.47,5.94-2.47
				C168.75,141.58,170.92,142.48,172.48,144.05z"/>
		</g>
		<g>
		</g>
	</g>
</g>
</svg>