<?xml version="1.0" encoding="iso-8859-1"?>
<!-- Uploaded to: SVG Repo, www.svgrepo.com, Generator: SVG Repo Mixer Tools -->
<!DOCTYPE svg PUBLIC "-//W3C//DTD SVG 1.1//EN" "http://www.w3.org/Graphics/SVG/1.1/DTD/svg11.dtd">
<svg height="800px" width="800px" version="1.1" id="Capa_1" xmlns="http://www.w3.org/2000/svg" xmlns:xlink="http://www.w3.org/1999/xlink" 
	 viewBox="0 0 74.331 74.331" xml:space="preserve">
<g>
	<g>
		<g>
			<polygon style="fill:#20B0A8;" points="61.657,48.721 46.318,48.761 14.419,48.843 14.447,59.576 61.686,59.454 			"/>
		</g>
		<g>
			<polygon style="fill:#EED915;" points="61.657,48.721 61.638,40.489 50.689,31.729 39.295,43.359 27.19,34.047 14.413,46.886 
				14.411,46.892 14.419,48.843 46.318,48.761 			"/>
		</g>
		<g>
			<path style="fill:#20B0A8;" d="M39.295,43.359l11.393-11.63l10.949,8.76L61.549,7.474l-47.24,0.13l0.03,11.26l0.073,28.023
				L27.19,34.047L39.295,43.359z M47.465,12.766c3.844-0.013,6.966,3.098,6.979,6.941c0,1.641-0.555,3.143-1.498,4.335l1.952-0.008
				c1.092-0.005,1.979,0.876,1.977,1.965c0.004,1.092-0.874,1.973-1.966,1.976l-4.23,0.009l-2.089,0.008
				c-0.228,0.92-1.056,1.603-2.041,1.604l-8.796,0.023c-1.17,0.005-2.118-0.94-2.118-2.106c-0.001-1.07,0.785-1.95,1.813-2.097
				c-0.28-0.371-0.45-0.834-0.452-1.333c-0.009-1.23,0.993-2.23,2.221-2.234h1.628c-0.21-0.665-0.323-1.369-0.33-2.101
				c0.002-0.274,0.015-0.545,0.042-0.808C40.949,15.469,43.89,12.777,47.465,12.766z M27.629,20.934l-8.798,0.025
				c-1.168,0.001-2.116-0.943-2.119-2.105c0-1.07,0.785-1.95,1.814-2.097c-0.285-0.373-0.45-0.833-0.449-1.337
				c-0.003-1.23,0.984-2.229,2.221-2.234l9.709-0.025c1.229-0.004,2.23,0.991,2.231,2.226l3.739-0.011
				c1.091-0.004,1.972,0.873,1.979,1.96c-0.003,0.156-0.017,0.307-0.047,0.45c-0.205,0.871-0.986,1.523-1.919,1.526l-6.319,0.017
				C29.442,20.249,28.614,20.931,27.629,20.934z"/>
		</g>
		<g>
			<path style="fill:#FFFFFF;" d="M35.989,19.313c0.933-0.003,1.714-0.655,1.919-1.526c0.03-0.144,0.043-0.294,0.047-0.45
				c-0.007-1.087-0.888-1.964-1.979-1.96l-3.739,0.011c-0.001-1.234-1.002-2.229-2.231-2.226l-9.709,0.025
				c-1.237,0.006-2.224,1.005-2.221,2.234c-0.001,0.504,0.164,0.964,0.449,1.337c-1.029,0.147-1.814,1.026-1.814,2.097
				c0.003,1.162,0.951,2.106,2.119,2.105l8.798-0.025c0.985-0.004,1.813-0.685,2.041-1.605L35.989,19.313z"/>
		</g>
		<g>
			<path style="fill:#FFFFFF;" d="M48.927,21.823l-8.081,0.025h-1.628c-1.228,0.004-2.23,1.004-2.221,2.234
				c0.002,0.499,0.172,0.962,0.452,1.333c-1.029,0.146-1.815,1.026-1.813,2.097c0,1.167,0.948,2.111,2.118,2.106l8.796-0.023
				c0.985-0.002,1.813-0.684,2.041-1.604l2.089-0.008l4.23-0.009c1.092-0.004,1.97-0.885,1.966-1.976
				c0.001-1.089-0.886-1.97-1.977-1.965l-1.952,0.008l-1.786,0.003C51.157,22.816,50.156,21.82,48.927,21.823z"/>
		</g>
		<g>
			<path style="fill:#EED915;" d="M40.516,19.748c0.007,0.732,0.12,1.436,0.33,2.101l8.081-0.025
				c1.229-0.003,2.23,0.993,2.234,2.222l1.786-0.003c0.942-1.191,1.498-2.694,1.498-4.335c-0.013-3.844-3.135-6.954-6.979-6.941
				c-3.575,0.012-6.516,2.703-6.908,6.175C40.53,19.203,40.518,19.474,40.516,19.748z"/>
		</g>
		<g>
			<path style="fill:#F0505D;" d="M63.958,3.75l-52.08,0.14l0.19,70.441l52.073-0.136L63.958,3.75z M14.447,59.576l-0.028-10.733
				l-0.008-1.951l0.002-0.006L14.34,18.863l-0.03-11.26l47.24-0.13l0.088,33.016l0.019,8.231l0.029,10.733L14.447,59.576z"/>
		</g>
	</g>
	<g>
		<g>
			<path style="fill:#231F20;" d="M10.71,71.703c-0.197-0.095-0.333-0.297-0.334-0.53L10.189,0.73
				c-0.001-0.157,0.061-0.308,0.172-0.418c0.111-0.111,0.261-0.174,0.417-0.175L62.854,0c0.157,0,0.307,0.063,0.417,0.172
				c0.111,0.11,0.174,0.261,0.175,0.417l0.187,70.442c0,0.327-0.263,0.592-0.589,0.593l-52.076,0.139
				C10.876,71.763,10.789,71.741,10.71,71.703z M11.373,1.318l0.184,69.261l50.894-0.135L62.267,1.184L11.373,1.318z"/>
		</g>
		<g>
			<path style="fill:#231F20;" d="M13.089,56.95c-0.198-0.096-0.334-0.297-0.334-0.531L12.616,4.443
				c0-0.325,0.263-0.591,0.589-0.592l47.242-0.127c0.157,0.001,0.307,0.063,0.417,0.172c0.111,0.111,0.174,0.261,0.175,0.418
				l0.137,51.977c0,0.325-0.263,0.591-0.589,0.592l-47.24,0.125C13.255,57.008,13.168,56.987,13.089,56.95z M13.8,5.031
				l0.135,50.794l46.059-0.122L59.859,4.908L13.8,5.031z"/>
		</g>
		<g>
			<path style="fill:#231F20;" d="M16.551,18.122L16.551,18.122c-0.926-0.448-1.526-1.4-1.529-2.428
				c-0.002-1.061,0.623-2.006,1.542-2.446c-0.118-0.312-0.18-0.644-0.181-0.984c-0.004-1.554,1.257-2.821,2.81-2.826l9.71-0.027
				c0.432,0,0.846,0.094,1.232,0.28c0.798,0.386,1.352,1.102,1.531,1.942l3.21-0.009c0.392-0.001,0.77,0.084,1.122,0.254
				c0.876,0.424,1.444,1.325,1.446,2.299c0.004,1.412-1.142,2.564-2.554,2.568l-5.901,0.017c-0.425,0.962-1.38,1.601-2.461,1.604
				l-8.796,0.023C17.319,18.392,16.921,18.301,16.551,18.122z M29.621,10.755c-0.224-0.108-0.464-0.163-0.715-0.163l-9.709,0.026
				c-0.902,0.003-1.635,0.739-1.632,1.643c0.001,0.354,0.116,0.693,0.332,0.978c0.126,0.167,0.155,0.389,0.075,0.582
				c-0.079,0.193-0.255,0.33-0.462,0.36c-0.747,0.106-1.308,0.755-1.307,1.509c0.001,0.588,0.332,1.111,0.861,1.367l0,0
				c0.208,0.101,0.432,0.151,0.665,0.15l8.795-0.024c0.698-0.001,1.303-0.476,1.471-1.154c0.065-0.264,0.301-0.448,0.572-0.449
				l6.319-0.018c0.761-0.002,1.378-0.623,1.376-1.384c-0.002-0.741-0.633-1.378-1.383-1.374l-3.741,0.01
				c-0.157,0-0.308-0.064-0.418-0.172c-0.111-0.11-0.173-0.261-0.174-0.417C30.546,11.594,30.191,11.03,29.621,10.755z"/>
		</g>
		<g>
			<path style="fill:#231F20;" d="M35.472,26.783L35.472,26.783c-0.94-0.455-1.526-1.386-1.529-2.43
				c-0.002-1.062,0.624-2.005,1.543-2.446c-0.119-0.312-0.18-0.644-0.181-0.984c-0.002-0.753,0.289-1.461,0.82-1.994
				c0.531-0.534,1.238-0.829,1.99-0.831l9.71-0.026c0.432-0.001,0.846,0.094,1.232,0.28c0.784,0.379,1.344,1.106,1.528,1.941
				l3.214-0.009c0.392-0.001,0.768,0.085,1.12,0.254c0.877,0.424,1.445,1.327,1.448,2.301c0.002,0.684-0.262,1.328-0.745,1.813
				c-0.483,0.484-1.125,0.753-1.81,0.755l-5.9,0.016c-0.426,0.962-1.381,1.603-2.462,1.605l-8.796,0.023
				C36.24,27.052,35.842,26.962,35.472,26.783z M48.543,19.415c-0.224-0.108-0.464-0.162-0.714-0.162l-9.711,0.026
				c-0.437,0.002-0.848,0.173-1.155,0.482c-0.309,0.31-0.478,0.722-0.477,1.158c0.001,0.354,0.116,0.693,0.332,0.979
				c0.126,0.167,0.155,0.388,0.075,0.581c-0.08,0.194-0.255,0.331-0.462,0.36c-0.747,0.106-1.309,0.756-1.307,1.511
				c0.001,0.587,0.332,1.111,0.861,1.368l0,0c0.208,0.1,0.432,0.15,0.665,0.149l8.796-0.023c0.698-0.002,1.304-0.477,1.472-1.156
				c0.065-0.264,0.301-0.448,0.572-0.449l6.318-0.017c0.369-0.001,0.715-0.146,0.975-0.406c0.259-0.263,0.402-0.608,0.401-0.978
				c-0.002-0.742-0.632-1.379-1.383-1.376l-3.741,0.009c-0.325,0.003-0.591-0.263-0.592-0.589
				C49.468,20.263,49.104,19.685,48.543,19.415z"/>
		</g>
		<g>
			<path style="fill:#231F20;" d="M39.489,19.219c-0.141-0.067-0.254-0.191-0.306-0.352c-0.234-0.732-0.354-1.499-0.356-2.278
				c-0.005-2.018,0.775-3.917,2.198-5.347c1.423-1.431,3.318-2.222,5.335-2.226c2.018-0.006,3.916,0.774,5.347,2.197
				c1.431,1.424,2.222,3.318,2.227,5.336c0.004,1.725-0.558,3.35-1.624,4.699c-0.202,0.256-0.574,0.297-0.83,0.098
				c-0.256-0.203-0.299-0.574-0.097-0.83c0.899-1.138,1.373-2.509,1.37-3.965c-0.005-1.701-0.672-3.3-1.879-4.5
				c-1.206-1.199-2.808-1.858-4.511-1.854c-1.702,0.004-3.3,0.671-4.5,1.877c-1.201,1.207-1.859,2.81-1.854,4.512
				c0.001,0.658,0.103,1.305,0.3,1.921c0.1,0.311-0.071,0.643-0.382,0.743C39.776,19.298,39.621,19.282,39.489,19.219z"/>
		</g>
		<g>
			<path style="fill:#231F20;" d="M13.055,44.263c-0.058-0.027-0.111-0.065-0.16-0.113c-0.231-0.229-0.232-0.604-0.002-0.835
				L25.67,30.47c0.21-0.212,0.543-0.235,0.779-0.052l19.125,14.714c0.258,0.199,0.307,0.569,0.108,0.827
				c-0.198,0.259-0.572,0.306-0.828,0.108L26.142,31.672L13.731,44.147C13.548,44.331,13.275,44.369,13.055,44.263z"/>
		</g>
		<g>
			<path style="fill:#231F20;" d="M37.937,40.731c-0.057-0.027-0.109-0.064-0.156-0.11c-0.234-0.228-0.237-0.603-0.009-0.835
				l11.391-11.629c0.212-0.218,0.554-0.238,0.791-0.048l10.951,8.759c0.254,0.203,0.296,0.575,0.092,0.83
				c-0.204,0.255-0.578,0.297-0.83,0.092l-10.534-8.425L38.615,40.612C38.434,40.798,38.159,40.839,37.937,40.731z"/>
		</g>
		<g>
			<path style="fill:#231F20;" d="M13.061,46.216c-0.197-0.096-0.333-0.297-0.335-0.53c0-0.327,0.263-0.592,0.589-0.593l47.24-0.126
				c0.327,0,0.591,0.265,0.592,0.59c0,0.326-0.262,0.592-0.589,0.592l-47.24,0.126C13.226,46.274,13.139,46.254,13.061,46.216z"/>
		</g>
	</g>
</g>
</svg>