<?xml version="1.0" encoding="iso-8859-1"?>
<!-- Uploaded to: SVG Repo, www.svgrepo.com, Generator: SVG Repo Mixer Tools -->
<svg height="800px" width="800px" version="1.1" id="Layer_1" xmlns="http://www.w3.org/2000/svg" xmlns:xlink="http://www.w3.org/1999/xlink" 
	 viewBox="0 0 512 512" xml:space="preserve">
<circle style="fill:#CD2900;" cx="256" cy="256" r="256"/>
<path style="fill:#AC2201;" d="M256,0c-11.317,0-22.461,0.744-33.391,2.167C348.216,18.53,445.217,125.933,445.217,256
	s-97.002,237.47-222.609,253.833C233.539,511.256,244.683,512,256,512c141.385,0,256-114.616,256-256S397.385,0,256,0z"/>
<path style="fill:#FFFFFF;" d="M203.228,421.989c-17.319,0-34.019-4.922-42.433-7.856l-3.508-1.223
	c-1.476-0.514-2.465-1.907-2.465-3.47v-58.556c0-2.643,2.707-4.422,5.133-3.374l7.305,3.159c5.221,2.258,10.085,3.404,14.456,3.404
	c2.586,0,5.065-0.405,7.371-1.205c6.134-2.129,10.256-8.072,10.256-14.789V214.268c0-2.03,1.645-3.675,3.675-3.675h49.415
	c2.03,0,3.675,1.645,3.675,3.675v49.631c0,1.522,0.931,2.904,2.357,3.432c10.577,3.916,21.523,5.976,31.825,5.976
	c12.634,0,24.18-3.046,33.389-8.809c9.754-6.103,21.729-18.389,23.396-42.257c1.178-16.858-5.188-33.665-17.924-47.322
	c-17.516-18.783-45.03-29.995-73.6-29.995c-47.683,0-87.775,31.465-91.274,71.631l-0.318,3.66c-0.135,1.543-1.222,2.836-2.719,3.233
	l-56.905,15.086c-2.248,0.597-4.478-1.02-4.61-3.342l-0.366-6.397c-0.124-2.164-0.187-4.356-0.187-6.516
	c0-73.011,70.153-132.41,156.383-132.41c47.691,0,93.94,18.645,123.718,49.875c22.802,23.913,34.097,52.462,32.663,82.562
	c-1.594,33.461-15.179,61.01-39.286,79.668c-21.101,16.332-48.796,24.964-80.089,24.964c-10.508,0-21.297-0.997-32.141-2.969
	c-2.246-0.408-4.309,1.331-4.309,3.615v42.398c0,27.973-21.6,50.783-49.173,51.929c-1.211,0.051-2.458,0.076-3.705,0.076
	C203.231,421.989,203.229,421.989,203.228,421.989z"/>
</svg>